<mxfile host="app.diagrams.net" modified="2023-07-03T15:13:18.531Z" agent="Mozilla/5.0 (Windows NT 10.0; Win64; x64) AppleWebKit/537.36 (KHTML, like Gecko) Chrome/114.0.0.0 Safari/537.36" etag="LnIJQbXFNonkY7DCbgJ6" version="21.5.0" type="device">
  <diagram name="Page-1" id="13e1069c-82ec-6db2-03f1-153e76fe0fe0">
    <mxGraphModel dx="1843" dy="814" grid="1" gridSize="10" guides="1" tooltips="1" connect="1" arrows="1" fold="1" page="1" pageScale="1" pageWidth="1100" pageHeight="850" background="none" math="0" shadow="0">
      <root>
        <mxCell id="0" />
        <mxCell id="1" parent="0" />
        <mxCell id="7baba1c4bc27f4b0-2" value="CRUD" style="shape=umlLifeline;perimeter=lifelinePerimeter;whiteSpace=wrap;html=1;container=1;collapsible=0;recursiveResize=0;outlineConnect=0;rounded=1;shadow=0;comic=0;labelBackgroundColor=none;strokeWidth=1;fontFamily=Verdana;fontSize=12;align=center;" parent="1" vertex="1">
          <mxGeometry x="240" y="80" width="100" height="720" as="geometry" />
        </mxCell>
        <mxCell id="7baba1c4bc27f4b0-10" value="" style="html=1;points=[];perimeter=orthogonalPerimeter;rounded=0;shadow=0;comic=0;labelBackgroundColor=none;strokeWidth=1;fontFamily=Verdana;fontSize=12;align=center;" parent="7baba1c4bc27f4b0-2" vertex="1">
          <mxGeometry x="45" y="190" width="15" height="70" as="geometry" />
        </mxCell>
        <mxCell id="BPHxIAMGoka_aqc7LGy1-9" value="" style="html=1;points=[];perimeter=orthogonalPerimeter;rounded=0;shadow=0;comic=0;labelBackgroundColor=none;strokeWidth=1;fontFamily=Verdana;fontSize=12;align=center;" parent="7baba1c4bc27f4b0-2" vertex="1">
          <mxGeometry x="43" y="516" width="15" height="104" as="geometry" />
        </mxCell>
        <mxCell id="7baba1c4bc27f4b0-11" value="Acceso" style="html=1;verticalAlign=bottom;endArrow=block;entryX=0;entryY=0;labelBackgroundColor=none;fontFamily=Verdana;fontSize=12;edgeStyle=elbowEdgeStyle;elbow=vertical;" parent="7baba1c4bc27f4b0-2" edge="1">
          <mxGeometry relative="1" as="geometry">
            <mxPoint x="-85" y="210.41176470588243" as="sourcePoint" />
            <mxPoint x="45" y="210" as="targetPoint" />
          </mxGeometry>
        </mxCell>
        <mxCell id="BPHxIAMGoka_aqc7LGy1-8" value="Datos" style="html=1;verticalAlign=bottom;endArrow=open;dashed=1;endSize=8;labelBackgroundColor=none;fontFamily=Verdana;fontSize=12;edgeStyle=elbowEdgeStyle;elbow=vertical;" parent="7baba1c4bc27f4b0-2" edge="1">
          <mxGeometry relative="1" as="geometry">
            <mxPoint x="-82" y="239" as="targetPoint" />
            <Array as="points">
              <mxPoint x="-2.5" y="238.96" />
              <mxPoint x="-17.5" y="229.5" />
              <mxPoint x="12.5" y="229.5" />
            </Array>
            <mxPoint x="42" y="240" as="sourcePoint" />
          </mxGeometry>
        </mxCell>
        <mxCell id="BPHxIAMGoka_aqc7LGy1-11" value="" style="html=1;points=[];perimeter=orthogonalPerimeter;rounded=0;shadow=0;comic=0;labelBackgroundColor=none;strokeWidth=1;fontFamily=Verdana;fontSize=12;align=center;" parent="7baba1c4bc27f4b0-2" vertex="1">
          <mxGeometry x="45" y="275" width="15" height="70" as="geometry" />
        </mxCell>
        <mxCell id="BPHxIAMGoka_aqc7LGy1-12" value="Acceso" style="html=1;verticalAlign=bottom;endArrow=block;entryX=0;entryY=0;labelBackgroundColor=none;fontFamily=Verdana;fontSize=12;edgeStyle=elbowEdgeStyle;elbow=vertical;" parent="7baba1c4bc27f4b0-2" edge="1">
          <mxGeometry relative="1" as="geometry">
            <mxPoint x="-85" y="295.41176470588243" as="sourcePoint" />
            <mxPoint x="45" y="295" as="targetPoint" />
          </mxGeometry>
        </mxCell>
        <mxCell id="BPHxIAMGoka_aqc7LGy1-13" value="Datos" style="html=1;verticalAlign=bottom;endArrow=open;dashed=1;endSize=8;labelBackgroundColor=none;fontFamily=Verdana;fontSize=12;edgeStyle=elbowEdgeStyle;elbow=vertical;" parent="7baba1c4bc27f4b0-2" edge="1">
          <mxGeometry relative="1" as="geometry">
            <mxPoint x="-82" y="324" as="targetPoint" />
            <Array as="points">
              <mxPoint x="-2.5" y="323.96000000000004" />
              <mxPoint x="-17.5" y="314.5" />
              <mxPoint x="12.5" y="314.5" />
            </Array>
            <mxPoint x="42" y="320" as="sourcePoint" />
          </mxGeometry>
        </mxCell>
        <mxCell id="BPHxIAMGoka_aqc7LGy1-14" value="" style="html=1;points=[];perimeter=orthogonalPerimeter;rounded=0;shadow=0;comic=0;labelBackgroundColor=none;strokeWidth=1;fontFamily=Verdana;fontSize=12;align=center;" parent="7baba1c4bc27f4b0-2" vertex="1">
          <mxGeometry x="45" y="370" width="15" height="80" as="geometry" />
        </mxCell>
        <mxCell id="BPHxIAMGoka_aqc7LGy1-29" value="Acceso" style="html=1;verticalAlign=bottom;endArrow=block;labelBackgroundColor=none;fontFamily=Verdana;fontSize=12;edgeStyle=elbowEdgeStyle;elbow=vertical;" parent="7baba1c4bc27f4b0-2" edge="1">
          <mxGeometry relative="1" as="geometry">
            <mxPoint x="-82" y="577.4117647058824" as="sourcePoint" />
            <mxPoint x="43" y="577" as="targetPoint" />
          </mxGeometry>
        </mxCell>
        <mxCell id="y5iPbp21uO4vkQjllHN0-5" value="Informacion" style="html=1;verticalAlign=bottom;endArrow=open;dashed=1;endSize=8;labelBackgroundColor=none;fontFamily=Verdana;fontSize=12;edgeStyle=elbowEdgeStyle;elbow=vertical;" edge="1" parent="7baba1c4bc27f4b0-2">
          <mxGeometry relative="1" as="geometry">
            <mxPoint x="60" y="430" as="targetPoint" />
            <Array as="points">
              <mxPoint x="424.5" y="430" />
              <mxPoint x="409.5" y="420.53999999999996" />
              <mxPoint x="439.5" y="420.53999999999996" />
            </Array>
            <mxPoint x="485" y="430" as="sourcePoint" />
          </mxGeometry>
        </mxCell>
        <mxCell id="y5iPbp21uO4vkQjllHN0-24" value="Datos" style="html=1;verticalAlign=bottom;endArrow=open;dashed=1;endSize=8;labelBackgroundColor=none;fontFamily=Verdana;fontSize=12;edgeStyle=elbowEdgeStyle;elbow=vertical;" edge="1" parent="7baba1c4bc27f4b0-2">
          <mxGeometry relative="1" as="geometry">
            <mxPoint x="-81" y="149" as="targetPoint" />
            <Array as="points">
              <mxPoint x="-1.5" y="148.96000000000004" />
              <mxPoint x="-16.5" y="139.5" />
              <mxPoint x="13.5" y="139.5" />
            </Array>
            <mxPoint x="43" y="149" as="sourcePoint" />
          </mxGeometry>
        </mxCell>
        <mxCell id="y5iPbp21uO4vkQjllHN0-23" value="Acceso" style="html=1;verticalAlign=bottom;endArrow=block;entryX=0;entryY=0;labelBackgroundColor=none;fontFamily=Verdana;fontSize=12;edgeStyle=elbowEdgeStyle;elbow=vertical;" edge="1" parent="7baba1c4bc27f4b0-2">
          <mxGeometry relative="1" as="geometry">
            <mxPoint x="-85" y="120.41176470588243" as="sourcePoint" />
            <mxPoint x="45" y="120" as="targetPoint" />
          </mxGeometry>
        </mxCell>
        <mxCell id="y5iPbp21uO4vkQjllHN0-22" value="" style="html=1;points=[];perimeter=orthogonalPerimeter;rounded=0;shadow=0;comic=0;labelBackgroundColor=none;strokeWidth=1;fontFamily=Verdana;fontSize=12;align=center;" vertex="1" parent="7baba1c4bc27f4b0-2">
          <mxGeometry x="45" y="100" width="15" height="70" as="geometry" />
        </mxCell>
        <mxCell id="BPHxIAMGoka_aqc7LGy1-30" value="Datos Turno" style="html=1;verticalAlign=bottom;endArrow=open;dashed=1;endSize=8;labelBackgroundColor=none;fontFamily=Verdana;fontSize=12;edgeStyle=elbowEdgeStyle;elbow=vertical;" parent="7baba1c4bc27f4b0-2" edge="1">
          <mxGeometry relative="1" as="geometry">
            <mxPoint x="-81" y="645.04" as="targetPoint" />
            <Array as="points">
              <mxPoint x="-1.5" y="645" />
              <mxPoint x="-16.5" y="635.54" />
              <mxPoint x="13.5" y="635.54" />
            </Array>
            <mxPoint x="620" y="645" as="sourcePoint" />
          </mxGeometry>
        </mxCell>
        <mxCell id="7baba1c4bc27f4b0-3" value="TABLA MEDICOS&amp;nbsp;" style="shape=umlLifeline;perimeter=lifelinePerimeter;whiteSpace=wrap;html=1;container=1;collapsible=0;recursiveResize=0;outlineConnect=0;rounded=1;shadow=0;comic=0;labelBackgroundColor=none;strokeWidth=1;fontFamily=Verdana;fontSize=12;align=center;" parent="1" vertex="1">
          <mxGeometry x="540" y="80" width="100" height="720" as="geometry" />
        </mxCell>
        <mxCell id="y5iPbp21uO4vkQjllHN0-3" style="edgeStyle=orthogonalEdgeStyle;rounded=0;orthogonalLoop=1;jettySize=auto;html=1;" edge="1" parent="7baba1c4bc27f4b0-3" source="7baba1c4bc27f4b0-13" target="7baba1c4bc27f4b0-3">
          <mxGeometry relative="1" as="geometry">
            <Array as="points">
              <mxPoint x="50" y="270" />
              <mxPoint x="50" y="270" />
            </Array>
          </mxGeometry>
        </mxCell>
        <mxCell id="7baba1c4bc27f4b0-13" value="" style="html=1;points=[];perimeter=orthogonalPerimeter;rounded=0;shadow=0;comic=0;labelBackgroundColor=none;strokeWidth=1;fontFamily=Verdana;fontSize=12;align=center;" parent="7baba1c4bc27f4b0-3" vertex="1">
          <mxGeometry x="45" y="210" width="15" height="159" as="geometry" />
        </mxCell>
        <mxCell id="y5iPbp21uO4vkQjllHN0-26" value="Informacion" style="html=1;verticalAlign=bottom;endArrow=open;dashed=1;endSize=8;labelBackgroundColor=none;fontFamily=Verdana;fontSize=12;edgeStyle=elbowEdgeStyle;elbow=vertical;entryX=0.933;entryY=0.837;entryDx=0;entryDy=0;entryPerimeter=0;" edge="1" parent="7baba1c4bc27f4b0-3">
          <mxGeometry relative="1" as="geometry">
            <mxPoint x="-241.0050000000001" y="150.00000000000014" as="targetPoint" />
            <Array as="points">
              <mxPoint x="114.5" y="151.41" />
              <mxPoint x="99.5" y="141.94999999999996" />
              <mxPoint x="129.5" y="141.94999999999996" />
            </Array>
            <mxPoint x="320" y="150" as="sourcePoint" />
          </mxGeometry>
        </mxCell>
        <mxCell id="7baba1c4bc27f4b0-4" value="TABLA ESPECIALIDAD" style="shape=umlLifeline;perimeter=lifelinePerimeter;whiteSpace=wrap;html=1;container=1;collapsible=0;recursiveResize=0;outlineConnect=0;rounded=1;shadow=0;comic=0;labelBackgroundColor=none;strokeWidth=1;fontFamily=Verdana;fontSize=12;align=center;" parent="1" vertex="1">
          <mxGeometry x="400" y="80" width="100" height="720" as="geometry" />
        </mxCell>
        <mxCell id="7baba1c4bc27f4b0-16" value="" style="html=1;points=[];perimeter=orthogonalPerimeter;rounded=0;shadow=0;comic=0;labelBackgroundColor=none;strokeWidth=1;fontFamily=Verdana;fontSize=12;align=center;fontStyle=1" parent="7baba1c4bc27f4b0-4" vertex="1">
          <mxGeometry x="44" y="190" width="15" height="70" as="geometry" />
        </mxCell>
        <mxCell id="BPHxIAMGoka_aqc7LGy1-42" value="Informacion" style="html=1;verticalAlign=bottom;endArrow=open;dashed=1;endSize=8;labelBackgroundColor=none;fontFamily=Verdana;fontSize=12;edgeStyle=elbowEdgeStyle;elbow=vertical;" parent="7baba1c4bc27f4b0-4" edge="1">
          <mxGeometry x="-0.0003" relative="1" as="geometry">
            <mxPoint x="-100" y="240.03999999999996" as="targetPoint" />
            <Array as="points">
              <mxPoint x="-20.5" y="240" />
              <mxPoint x="-35.5" y="230.54" />
              <mxPoint x="-5.5" y="230.54" />
            </Array>
            <mxPoint x="40" y="240" as="sourcePoint" />
            <mxPoint as="offset" />
          </mxGeometry>
        </mxCell>
        <mxCell id="y5iPbp21uO4vkQjllHN0-4" value="Consulta" style="edgeStyle=orthogonalEdgeStyle;rounded=0;orthogonalLoop=1;jettySize=auto;html=1;" edge="1" parent="7baba1c4bc27f4b0-4">
          <mxGeometry relative="1" as="geometry">
            <mxPoint x="-100" y="390" as="sourcePoint" />
            <mxPoint x="320" y="390" as="targetPoint" />
            <mxPoint as="offset" />
          </mxGeometry>
        </mxCell>
        <mxCell id="7baba1c4bc27f4b0-14" value="Consulta" style="html=1;verticalAlign=bottom;endArrow=block;entryX=-0.341;entryY=0.085;labelBackgroundColor=none;fontFamily=Verdana;fontSize=12;edgeStyle=elbowEdgeStyle;elbow=vertical;entryDx=0;entryDy=0;entryPerimeter=0;" parent="7baba1c4bc27f4b0-4" edge="1">
          <mxGeometry relative="1" as="geometry">
            <mxPoint x="-96.58999999999997" y="209.00142857142868" as="sourcePoint" />
            <mxPoint x="45.00000000000017" y="209.53000000000014" as="targetPoint" />
          </mxGeometry>
        </mxCell>
        <mxCell id="BPHxIAMGoka_aqc7LGy1-33" value="Asignacion" style="html=1;verticalAlign=bottom;endArrow=block;labelBackgroundColor=none;fontFamily=Verdana;fontSize=12;edgeStyle=elbowEdgeStyle;elbow=vertical;" parent="7baba1c4bc27f4b0-4" edge="1">
          <mxGeometry x="0.0022" relative="1" as="geometry">
            <mxPoint x="60" y="200" as="sourcePoint" />
            <mxPoint x="460" y="200" as="targetPoint" />
            <mxPoint as="offset" />
          </mxGeometry>
        </mxCell>
        <mxCell id="y5iPbp21uO4vkQjllHN0-32" value="Solicitud" style="html=1;verticalAlign=bottom;endArrow=block;labelBackgroundColor=none;fontFamily=Verdana;fontSize=12;edgeStyle=elbowEdgeStyle;elbow=vertical;" edge="1" parent="7baba1c4bc27f4b0-4">
          <mxGeometry relative="1" as="geometry">
            <mxPoint x="-100" y="577" as="sourcePoint" />
            <mxPoint x="460" y="577" as="targetPoint" />
          </mxGeometry>
        </mxCell>
        <mxCell id="7baba1c4bc27f4b0-5" value="TABLA PACIENTES" style="shape=umlLifeline;perimeter=lifelinePerimeter;whiteSpace=wrap;html=1;container=1;collapsible=0;recursiveResize=0;outlineConnect=0;rounded=1;shadow=0;comic=0;labelBackgroundColor=none;strokeWidth=1;fontFamily=Verdana;fontSize=12;align=center;" parent="1" vertex="1">
          <mxGeometry x="680" y="80" width="100" height="720" as="geometry" />
        </mxCell>
        <mxCell id="BPHxIAMGoka_aqc7LGy1-23" value="" style="html=1;points=[];perimeter=orthogonalPerimeter;rounded=0;shadow=0;comic=0;labelBackgroundColor=none;strokeWidth=1;fontFamily=Verdana;fontSize=12;align=center;" parent="7baba1c4bc27f4b0-5" vertex="1">
          <mxGeometry x="45" y="320" width="15" height="130" as="geometry" />
        </mxCell>
        <mxCell id="BPHxIAMGoka_aqc7LGy1-44" value="Asignacion" style="html=1;verticalAlign=bottom;endArrow=block;labelBackgroundColor=none;fontFamily=Verdana;fontSize=12;edgeStyle=elbowEdgeStyle;elbow=vertical;" parent="7baba1c4bc27f4b0-5" edge="1">
          <mxGeometry relative="1" as="geometry">
            <mxPoint x="-80" y="330" as="sourcePoint" />
            <mxPoint x="45" y="330" as="targetPoint" />
          </mxGeometry>
        </mxCell>
        <mxCell id="BPHxIAMGoka_aqc7LGy1-38" value="Asignacion" style="html=1;verticalAlign=bottom;endArrow=block;labelBackgroundColor=none;fontFamily=Verdana;fontSize=12;edgeStyle=elbowEdgeStyle;elbow=vertical;" parent="7baba1c4bc27f4b0-5" edge="1">
          <mxGeometry relative="1" as="geometry">
            <mxPoint x="-78.75" y="260" as="sourcePoint" />
            <mxPoint x="178.75" y="260.28571428571445" as="targetPoint" />
          </mxGeometry>
        </mxCell>
        <mxCell id="7baba1c4bc27f4b0-6" value="HISTORIA CLINICA" style="shape=umlLifeline;perimeter=lifelinePerimeter;whiteSpace=wrap;html=1;container=1;collapsible=0;recursiveResize=0;outlineConnect=0;rounded=1;shadow=0;comic=0;labelBackgroundColor=none;strokeWidth=1;fontFamily=Verdana;fontSize=12;align=center;" parent="1" vertex="1">
          <mxGeometry x="960" y="80" width="120" height="720" as="geometry" />
        </mxCell>
        <mxCell id="BPHxIAMGoka_aqc7LGy1-10" value="" style="html=1;points=[];perimeter=orthogonalPerimeter;rounded=0;shadow=0;comic=0;labelBackgroundColor=none;strokeWidth=1;fontFamily=Verdana;fontSize=12;align=center;" parent="7baba1c4bc27f4b0-6" vertex="1">
          <mxGeometry x="52.5" y="516" width="15" height="71" as="geometry" />
        </mxCell>
        <mxCell id="BPHxIAMGoka_aqc7LGy1-43" value="Informacion" style="html=1;verticalAlign=bottom;endArrow=open;dashed=1;endSize=8;labelBackgroundColor=none;fontFamily=Verdana;fontSize=12;edgeStyle=elbowEdgeStyle;elbow=vertical;" parent="7baba1c4bc27f4b0-6" edge="1">
          <mxGeometry relative="1" as="geometry">
            <mxPoint x="-79.5" y="570" as="targetPoint" />
            <Array as="points">
              <mxPoint x="-10" y="570" />
              <mxPoint x="-25" y="560.54" />
              <mxPoint x="5" y="560.54" />
            </Array>
            <mxPoint x="40.5" y="570" as="sourcePoint" />
          </mxGeometry>
        </mxCell>
        <mxCell id="y5iPbp21uO4vkQjllHN0-34" value="Consulta" style="html=1;verticalAlign=bottom;endArrow=block;labelBackgroundColor=none;fontFamily=Verdana;fontSize=12;edgeStyle=elbowEdgeStyle;elbow=vertical;" edge="1" parent="7baba1c4bc27f4b0-6">
          <mxGeometry relative="1" as="geometry">
            <mxPoint x="-80" y="540" as="sourcePoint" />
            <mxPoint x="45" y="540" as="targetPoint" />
          </mxGeometry>
        </mxCell>
        <mxCell id="7baba1c4bc27f4b0-8" value="MENU" style="shape=umlLifeline;perimeter=lifelinePerimeter;whiteSpace=wrap;html=1;container=1;collapsible=0;recursiveResize=0;outlineConnect=0;rounded=1;shadow=0;comic=0;labelBackgroundColor=none;strokeWidth=1;fontFamily=Verdana;fontSize=12;align=center;" parent="1" vertex="1">
          <mxGeometry x="100" y="80" width="100" height="720" as="geometry" />
        </mxCell>
        <mxCell id="7baba1c4bc27f4b0-9" value="" style="html=1;points=[];perimeter=orthogonalPerimeter;rounded=0;shadow=0;comic=0;labelBackgroundColor=none;strokeWidth=1;fontFamily=Verdana;fontSize=12;align=center;" parent="7baba1c4bc27f4b0-8" vertex="1">
          <mxGeometry x="43" y="100" width="15" height="350" as="geometry" />
        </mxCell>
        <mxCell id="y5iPbp21uO4vkQjllHN0-30" value="" style="endArrow=none;html=1;rounded=0;" edge="1" parent="7baba1c4bc27f4b0-8" source="7baba1c4bc27f4b0-8">
          <mxGeometry width="50" height="50" relative="1" as="geometry">
            <mxPoint x="-100" y="480" as="sourcePoint" />
            <mxPoint x="1000" y="480" as="targetPoint" />
          </mxGeometry>
        </mxCell>
        <mxCell id="y5iPbp21uO4vkQjllHN0-39" value="" style="html=1;points=[];perimeter=orthogonalPerimeter;rounded=0;shadow=0;comic=0;labelBackgroundColor=none;strokeWidth=1;fontFamily=Verdana;fontSize=12;align=center;" vertex="1" parent="7baba1c4bc27f4b0-8">
          <mxGeometry x="43" y="517" width="15" height="153" as="geometry" />
        </mxCell>
        <mxCell id="BPHxIAMGoka_aqc7LGy1-1" value="ADMIN&amp;nbsp;" style="rounded=1;whiteSpace=wrap;html=1;" parent="1" vertex="1">
          <mxGeometry x="10" y="350" width="100" height="50" as="geometry" />
        </mxCell>
        <mxCell id="BPHxIAMGoka_aqc7LGy1-2" value="PACIENTE" style="rounded=1;whiteSpace=wrap;html=1;" parent="1" vertex="1">
          <mxGeometry x="10" y="670" width="100" height="50" as="geometry" />
        </mxCell>
        <mxCell id="7baba1c4bc27f4b0-7" value="TABLA TURNOS" style="shape=umlLifeline;perimeter=lifelinePerimeter;whiteSpace=wrap;html=1;container=1;collapsible=0;recursiveResize=0;outlineConnect=0;rounded=1;shadow=0;comic=0;labelBackgroundColor=none;strokeWidth=1;fontFamily=Verdana;fontSize=12;align=center;" parent="1" vertex="1">
          <mxGeometry x="820" y="80" width="100" height="720" as="geometry" />
        </mxCell>
        <mxCell id="BPHxIAMGoka_aqc7LGy1-25" value="" style="html=1;points=[];perimeter=orthogonalPerimeter;rounded=0;shadow=0;comic=0;labelBackgroundColor=none;strokeWidth=1;fontFamily=Verdana;fontSize=12;align=center;" parent="7baba1c4bc27f4b0-7" vertex="1">
          <mxGeometry x="43" y="90" width="17" height="360" as="geometry" />
        </mxCell>
        <mxCell id="y5iPbp21uO4vkQjllHN0-29" value="" style="html=1;points=[];perimeter=orthogonalPerimeter;rounded=0;shadow=0;comic=0;labelBackgroundColor=none;strokeWidth=1;fontFamily=Verdana;fontSize=12;align=center;" vertex="1" parent="7baba1c4bc27f4b0-7">
          <mxGeometry x="43" y="516" width="15" height="154" as="geometry" />
        </mxCell>
        <mxCell id="BPHxIAMGoka_aqc7LGy1-35" value="Asignacion" style="html=1;verticalAlign=bottom;endArrow=block;labelBackgroundColor=none;fontFamily=Verdana;fontSize=12;edgeStyle=elbowEdgeStyle;elbow=vertical;exitX=0.5;exitY=0.093;exitDx=0;exitDy=0;exitPerimeter=0;" parent="1" edge="1">
          <mxGeometry relative="1" as="geometry">
            <mxPoint x="740" y="450.0000000000001" as="sourcePoint" />
            <mxPoint x="860" y="452.84000000000003" as="targetPoint" />
          </mxGeometry>
        </mxCell>
        <mxCell id="BPHxIAMGoka_aqc7LGy1-16" value="Datos" style="html=1;verticalAlign=bottom;endArrow=open;dashed=1;endSize=8;labelBackgroundColor=none;fontFamily=Verdana;fontSize=12;edgeStyle=elbowEdgeStyle;elbow=vertical;" parent="1" edge="1">
          <mxGeometry relative="1" as="geometry">
            <mxPoint x="160" y="510" as="targetPoint" />
            <Array as="points">
              <mxPoint x="235.5" y="510.00000000000006" />
              <mxPoint x="220.5" y="500.54" />
              <mxPoint x="250.5" y="500.54" />
            </Array>
            <mxPoint x="285" y="510.00000000000006" as="sourcePoint" />
          </mxGeometry>
        </mxCell>
        <mxCell id="BPHxIAMGoka_aqc7LGy1-15" value="Acceso" style="html=1;verticalAlign=bottom;endArrow=block;entryX=0;entryY=0;labelBackgroundColor=none;fontFamily=Verdana;fontSize=12;edgeStyle=elbowEdgeStyle;elbow=vertical;" parent="1" edge="1">
          <mxGeometry relative="1" as="geometry">
            <mxPoint x="155" y="470.41176470588243" as="sourcePoint" />
            <mxPoint x="285" y="470" as="targetPoint" />
          </mxGeometry>
        </mxCell>
        <mxCell id="BPHxIAMGoka_aqc7LGy1-41" value="Medico" style="html=1;verticalAlign=bottom;endArrow=open;dashed=1;endSize=8;labelBackgroundColor=none;fontFamily=Verdana;fontSize=12;edgeStyle=elbowEdgeStyle;elbow=vertical;" parent="1" edge="1">
          <mxGeometry x="-0.0159" relative="1" as="geometry">
            <mxPoint x="460" y="330" as="targetPoint" />
            <Array as="points">
              <mxPoint x="534.5" y="330" />
              <mxPoint x="519.5" y="320.53999999999996" />
              <mxPoint x="549.5" y="320.53999999999996" />
            </Array>
            <mxPoint x="583" y="330" as="sourcePoint" />
            <mxPoint as="offset" />
          </mxGeometry>
        </mxCell>
        <mxCell id="y5iPbp21uO4vkQjllHN0-31" value="Solicitud" style="html=1;verticalAlign=bottom;endArrow=block;labelBackgroundColor=none;fontFamily=Verdana;fontSize=12;edgeStyle=elbowEdgeStyle;elbow=vertical;" edge="1" parent="1">
          <mxGeometry relative="1" as="geometry">
            <mxPoint x="300" y="200" as="sourcePoint" />
            <mxPoint x="860" y="200" as="targetPoint" />
          </mxGeometry>
        </mxCell>
        <mxCell id="y5iPbp21uO4vkQjllHN0-35" value="Datos" style="html=1;verticalAlign=bottom;endArrow=open;dashed=1;endSize=8;labelBackgroundColor=none;fontFamily=Verdana;fontSize=12;edgeStyle=elbowEdgeStyle;elbow=vertical;exitX=-0.114;exitY=0.305;exitDx=0;exitDy=0;exitPerimeter=0;" edge="1" parent="1" source="BPHxIAMGoka_aqc7LGy1-23">
          <mxGeometry relative="1" as="geometry">
            <mxPoint x="600" y="439" as="targetPoint" />
            <Array as="points">
              <mxPoint x="659.5" y="439.29" />
              <mxPoint x="644.5" y="429.83" />
              <mxPoint x="674.5" y="429.83" />
            </Array>
            <mxPoint x="720" y="439" as="sourcePoint" />
          </mxGeometry>
        </mxCell>
        <mxCell id="y5iPbp21uO4vkQjllHN0-36" value="Consulta" style="html=1;verticalAlign=bottom;endArrow=block;labelBackgroundColor=none;fontFamily=Verdana;fontSize=12;edgeStyle=elbowEdgeStyle;elbow=vertical;" edge="1" parent="1">
          <mxGeometry relative="1" as="geometry">
            <mxPoint x="301" y="373" as="sourcePoint" />
            <mxPoint x="581" y="373" as="targetPoint" />
          </mxGeometry>
        </mxCell>
        <mxCell id="y5iPbp21uO4vkQjllHN0-2" value="Informacion" style="html=1;verticalAlign=bottom;endArrow=open;dashed=1;endSize=8;labelBackgroundColor=none;fontFamily=Verdana;fontSize=12;edgeStyle=elbowEdgeStyle;elbow=vertical;exitX=0.057;exitY=0.832;exitDx=0;exitDy=0;exitPerimeter=0;" edge="1" parent="1" source="7baba1c4bc27f4b0-13" target="BPHxIAMGoka_aqc7LGy1-11">
          <mxGeometry relative="1" as="geometry">
            <mxPoint x="440" y="330.03999999999996" as="targetPoint" />
            <Array as="points">
              <mxPoint x="480" y="410" />
              <mxPoint x="550" y="380" />
              <mxPoint x="519.5" y="330" />
              <mxPoint x="504.5" y="320.53999999999996" />
              <mxPoint x="534.5" y="320.53999999999996" />
            </Array>
            <mxPoint x="580" y="380" as="sourcePoint" />
          </mxGeometry>
        </mxCell>
        <mxCell id="y5iPbp21uO4vkQjllHN0-37" value="Consulta disp" style="html=1;verticalAlign=bottom;endArrow=block;labelBackgroundColor=none;fontFamily=Verdana;fontSize=12;edgeStyle=elbowEdgeStyle;elbow=vertical;" edge="1" parent="1">
          <mxGeometry relative="1" as="geometry">
            <mxPoint x="460" y="302.29" as="sourcePoint" />
            <mxPoint x="580" y="302" as="targetPoint" />
          </mxGeometry>
        </mxCell>
        <mxCell id="y5iPbp21uO4vkQjllHN0-44" value="BASE DE DATOS" style="rounded=1;whiteSpace=wrap;html=1;" vertex="1" parent="1">
          <mxGeometry x="400" y="39" width="680" height="30" as="geometry" />
        </mxCell>
        <mxCell id="y5iPbp21uO4vkQjllHN0-46" value="" style="shape=umlActor;verticalLabelPosition=bottom;verticalAlign=top;html=1;outlineConnect=0;" vertex="1" parent="1">
          <mxGeometry x="45" y="285" width="30" height="60" as="geometry" />
        </mxCell>
        <mxCell id="y5iPbp21uO4vkQjllHN0-47" value="" style="shape=umlActor;verticalLabelPosition=bottom;verticalAlign=top;html=1;outlineConnect=0;" vertex="1" parent="1">
          <mxGeometry x="45" y="607" width="30" height="60" as="geometry" />
        </mxCell>
      </root>
    </mxGraphModel>
  </diagram>
</mxfile>
